<svg width="66" height="24" viewBox="0 0 66 24" fill="none" xmlns="http://www.w3.org/2000/svg">
<rect x="1.38086" y="0.5" width="64.1184" height="23" rx="11.5" fill="white"/>
<rect x="1.38086" y="0.5" width="64.1184" height="23" rx="11.5" stroke="#D3D6F4"/>
<path d="M23.7066 16.4526H23.7068V13.2607L0.880905 15.1079V18.3386C0.880844 18.3488 0.880844 18.359 0.880905 18.3692V18.3859H0.881269C0.893839 19.8875 1.80978 21.3196 3.66639 22.3915C7.79282 24.7739 15.0006 24.4751 19.7653 21.7241C22.3779 20.2157 23.7132 18.2833 23.7066 16.4526Z" fill="url(#paint0_linear_58_3497)"/>
<path d="M16.1113 23.243C17.4152 22.8713 18.6563 22.3641 19.7652 21.7239C20.4561 21.325 21.0567 20.8963 21.5678 20.4478V13.4336L16.1114 13.8752V23.243H16.1113Z" fill="url(#paint1_linear_58_3497)"/>
<path d="M0.880905 18.338C0.880844 18.3482 0.880844 18.3584 0.880905 18.3686V18.3853H0.881269C0.893231 19.8125 1.72192 21.1767 3.39805 22.2287L6.67224 20.3384L5.39323 14.7422L0.880905 15.1074V18.338Z" fill="url(#paint2_linear_58_3497)"/>
<path d="M19.7655 18.5115C24.5303 15.7606 25.0478 11.5992 20.9214 9.21675C16.795 6.83435 9.58722 7.13316 4.82247 9.8841C0.0577184 12.635 -0.459823 16.7964 3.66661 19.1788C7.79303 21.5612 15.0008 21.2624 19.7655 18.5115Z" fill="url(#paint3_linear_58_3497)"/>
<path d="M20.0267 9.73273C16.3279 7.59717 9.86687 7.86502 5.59574 10.3309C1.32461 12.7969 0.860746 16.5271 4.55962 18.6627C8.2585 20.7982 14.7195 20.5304 18.9906 18.0645C23.2618 15.5986 23.7257 11.8683 20.0267 9.73273ZM17.9746 17.4779C14.3514 19.5697 8.87065 19.7969 5.73291 17.9853C2.59518 16.1738 2.98866 13.0094 6.61182 10.9176C10.235 8.82577 15.7158 8.59861 18.8535 10.4102C21.9912 12.2217 21.5978 15.386 17.9746 17.4779Z" fill="url(#paint4_linear_58_3497)"/>
<path d="M5.59764 10.6181C9.86877 8.15217 16.3298 7.88439 20.0286 10.02C21.6454 10.9534 22.4667 12.1915 22.5226 13.4954C22.5828 12.087 21.7637 10.7344 20.0286 9.73273C16.3298 7.59717 9.86877 7.86502 5.59764 10.3309C3.19332 11.719 1.99556 13.5078 2.06751 15.1872C2.13558 13.593 3.33 11.9274 5.59764 10.6181Z" fill="url(#paint5_linear_58_3497)"/>
<path d="M5.73507 18.2728C8.87281 20.0843 14.3536 19.8572 17.9768 17.7653C20.0267 16.5818 21.0424 15.055 20.9699 13.624C20.9023 14.9697 19.89 16.3734 17.9768 17.478C14.3536 19.5699 8.87281 19.7971 5.73507 17.9855C4.37263 17.1989 3.67638 16.1572 3.62082 15.059C3.56034 16.2616 4.25428 17.4179 5.73507 18.2728Z" fill="url(#paint6_linear_58_3497)"/>
<path d="M9.60513 11.3297L3.55724 10.7217C0.00124848 13.4259 -0.0600814 17.028 3.66636 19.1795C4.546 19.6874 5.56602 20.073 6.67221 20.3393H12.0679L9.60513 11.3297Z" fill="url(#paint7_linear_58_3497)"/>
<path d="M24.9996 12.7925H24.9998V9.60059L2.17387 11.4478V14.6784C2.17381 14.6886 2.17381 14.6988 2.17387 14.709V14.7257L2.17424 14.7257C2.18681 16.2273 3.10275 17.6594 4.9593 18.7313C9.08572 21.1137 16.2935 20.8148 21.0582 18.0639C23.6708 16.5556 25.0062 14.6232 24.9996 12.7925Z" fill="url(#paint8_linear_58_3497)"/>
<path d="M24.0384 9.67773L18.582 10.1193V19.203C19.4559 18.8875 20.2896 18.5076 21.0593 18.0631C22.3835 17.2986 23.3789 16.4251 24.0384 15.5112V9.67773Z" fill="url(#paint9_linear_58_3497)"/>
<path d="M2.17389 14.6786C2.17383 14.6888 2.17383 14.699 2.17389 14.7092V14.7259H2.17425C2.18433 15.9335 2.7793 17.096 3.97736 18.0625L6.89874 16.3758L3.37778 11.3506L2.17383 11.448L2.17389 14.6786Z" fill="url(#paint10_linear_58_3497)"/>
<path d="M21.0585 14.8513C25.8233 12.1004 26.3408 7.939 22.2144 5.55659C18.0879 3.17419 10.8802 3.47301 6.11544 6.22394C1.35069 8.97487 0.833145 13.1363 4.95957 15.5187C9.08594 17.9011 16.2937 17.6023 21.0585 14.8513Z" fill="url(#paint11_linear_58_3497)"/>
<path d="M21.3197 6.07258C17.6208 3.93701 11.1598 4.20486 6.88871 6.67076C2.61758 9.13672 2.15372 12.8669 5.85259 15.0025C9.55147 17.1381 16.0125 16.8702 20.2836 14.4043C24.5547 11.9384 25.0186 8.20814 21.3197 6.07258ZM19.2676 13.8177C15.6444 15.9096 10.1636 16.1367 7.02588 14.3252C3.88814 12.5136 4.28163 9.34931 7.90478 7.25746C11.5279 5.16562 17.0087 4.93845 20.1465 6.75C23.2842 8.56155 22.8907 11.7259 19.2676 13.8177Z" fill="url(#paint12_linear_58_3497)"/>
<path d="M6.88866 6.95798C11.1598 4.49202 17.6208 4.22423 21.3196 6.3598C22.9364 7.29323 23.7577 8.53125 23.8137 9.83527C23.8738 8.42687 23.0547 7.07426 21.3196 6.07258C17.6208 3.93701 11.1598 4.20486 6.88866 6.67076C4.48433 8.05889 3.28657 9.8476 3.35853 11.527C3.4266 9.93286 4.62102 8.26723 6.88866 6.95798Z" fill="url(#paint13_linear_58_3497)"/>
<path d="M7.02608 14.6126C10.1638 16.4242 15.6446 16.197 19.2678 14.1052C21.3177 12.9216 22.3334 11.3948 22.2609 9.96387C22.1933 11.3095 21.181 12.7132 19.2678 13.8179C15.6446 15.9097 10.1638 16.1369 7.02608 14.3254C5.66364 13.5388 4.96739 12.497 4.91183 11.3989C4.85141 12.6015 5.54529 13.7577 7.02608 14.6126Z" fill="url(#paint14_linear_58_3497)"/>
<path d="M4.95887 15.5179C5.54788 15.8579 6.19981 16.1432 6.8983 16.3746H10.4881L2.17412 11.4346C2.15517 12.9644 3.07033 14.4275 4.95887 15.5179Z" fill="url(#paint15_linear_58_3497)"/>
<path d="M23.7066 8.84425H23.7068V5.65234L0.880905 7.49954V10.7302C0.880844 10.7404 0.880844 10.7506 0.880905 10.7608V10.7775H0.881269C0.893839 12.2791 1.80978 13.7112 3.66639 14.7831C7.79282 17.1655 15.0006 16.8667 19.7653 14.1157C22.3779 12.6073 23.7132 10.6749 23.7066 8.84425Z" fill="url(#paint16_linear_58_3497)"/>
<path d="M22.265 5.76855L16.8086 6.21013V15.4205C17.8577 15.0757 18.8564 14.6402 19.7659 14.1152C20.8011 13.5175 21.6349 12.8532 22.265 12.155V5.76855Z" fill="url(#paint17_linear_58_3497)"/>
<path d="M19.7656 10.9031C24.5304 8.15218 25.0479 3.99078 20.9215 1.60837C16.795 -0.774031 9.58729 -0.475274 4.82249 2.27572C0.0576783 5.02671 -0.459803 9.18806 3.66663 11.5705C7.79305 13.9528 15.0008 13.654 19.7656 10.9031Z" fill="url(#paint18_linear_58_3497)"/>
<path d="M20.9214 1.60837C16.7951 -0.774031 9.5873 -0.475274 4.82249 2.27572C0.057678 5.02671 -0.459803 9.18806 3.66663 11.5705C3.80429 11.6499 3.94559 11.7262 4.08986 11.7997L21.3185 1.85272C21.1912 1.76941 21.0591 1.68786 20.9214 1.60837Z" fill="url(#paint19_linear_58_3497)"/>
<path d="M16.7106 4.039C16.5422 3.94184 16.3639 3.85337 16.1769 3.77358C15.7231 3.57993 15.1965 3.68602 14.8476 4.03487L14.3905 4.49205C14.1486 4.73391 14.2097 5.13462 14.5064 5.30471C14.5084 5.30586 14.5103 5.30696 14.5123 5.30811C15.5738 5.92093 15.4407 6.99141 14.215 7.69902C12.9893 8.40668 11.1353 8.4835 10.0738 7.87068C9.0124 7.25786 9.14551 6.18738 10.3711 5.47977C10.3728 5.4788 10.3746 5.47777 10.3763 5.4768C10.6332 5.32912 10.685 4.98136 10.4755 4.7718L10.0098 4.30612C9.73294 4.02928 9.31085 3.95356 8.95775 4.12274C8.78949 4.20332 8.62578 4.28924 8.46741 4.38069C6.02775 5.78922 5.76275 7.91999 7.87561 9.13985C9.98846 10.3597 13.679 10.2067 16.1187 8.79816C18.5584 7.38957 18.8234 5.2588 16.7106 4.039Z" fill="url(#paint20_linear_58_3497)"/>
<path d="M20.0267 2.1243C16.3279 -0.0112007 9.86687 0.256587 5.59574 2.72255C1.32461 5.18851 0.860746 8.91872 4.55962 11.0543C8.2585 13.1899 14.7195 12.922 18.9906 10.4561C23.2618 7.99014 23.7257 4.25987 20.0267 2.1243ZM17.9746 9.86946C14.3514 11.9613 8.87065 12.1885 5.73291 10.3769C2.59518 8.56537 2.98866 5.40104 6.61182 3.30919C10.235 1.21735 15.7158 0.990182 18.8535 2.80173C21.9912 4.61328 21.5978 7.77761 17.9746 9.86946Z" fill="url(#paint21_linear_58_3497)"/>
<path d="M5.59764 3.00976C9.86877 0.543797 16.3298 0.276009 20.0286 2.41157C21.6454 3.34501 22.4667 4.58309 22.5226 5.88705C22.5828 4.47864 21.7637 3.12604 20.0286 2.12435C16.3298 -0.0112105 9.86877 0.256578 5.59764 2.72254C3.19332 4.11066 1.99556 5.89938 2.06751 7.57879C2.13558 5.98463 3.33 4.319 5.59764 3.00976Z" fill="url(#paint22_linear_58_3497)"/>
<path d="M5.73507 10.6643C8.87281 12.4759 14.3536 12.2487 17.9768 10.1569C20.0267 8.97332 21.0424 7.4465 20.97 6.01562C20.9024 7.36131 19.8901 8.76498 17.9768 9.86965C14.3536 11.9615 8.87281 12.1887 5.73507 10.3771C4.37263 9.59051 3.67638 8.5488 3.62082 7.45063C3.56034 8.65319 4.25428 9.80941 5.73507 10.6643Z" fill="url(#paint23_linear_58_3497)"/>
<path d="M29.42 11.8C29.42 10.976 29.604 10.24 29.972 9.592C30.348 8.936 30.856 8.428 31.496 8.068C32.144 7.7 32.868 7.516 33.668 7.516C34.604 7.516 35.424 7.756 36.128 8.236C36.832 8.716 37.324 9.38 37.604 10.228H35.672C35.48 9.828 35.208 9.528 34.856 9.328C34.512 9.128 34.112 9.028 33.656 9.028C33.168 9.028 32.732 9.144 32.348 9.376C31.972 9.6 31.676 9.92 31.46 10.336C31.252 10.752 31.148 11.24 31.148 11.8C31.148 12.352 31.252 12.84 31.46 13.264C31.676 13.68 31.972 14.004 32.348 14.236C32.732 14.46 33.168 14.572 33.656 14.572C34.112 14.572 34.512 14.472 34.856 14.272C35.208 14.064 35.48 13.76 35.672 13.36H37.604C37.324 14.216 36.832 14.884 36.128 15.364C35.432 15.836 34.612 16.072 33.668 16.072C32.868 16.072 32.144 15.892 31.496 15.532C30.856 15.164 30.348 14.656 29.972 14.008C29.604 13.36 29.42 12.624 29.42 11.8ZM41.9909 16.108C41.3509 16.108 40.7749 15.968 40.2629 15.688C39.7509 15.4 39.3469 14.996 39.0509 14.476C38.7629 13.956 38.6189 13.356 38.6189 12.676C38.6189 11.996 38.7669 11.396 39.0629 10.876C39.3669 10.356 39.7789 9.956 40.2989 9.676C40.8189 9.388 41.3989 9.244 42.0389 9.244C42.6789 9.244 43.2589 9.388 43.7789 9.676C44.2989 9.956 44.7069 10.356 45.0029 10.876C45.3069 11.396 45.4589 11.996 45.4589 12.676C45.4589 13.356 45.3029 13.956 44.9909 14.476C44.6869 14.996 44.2709 15.4 43.7429 15.688C43.2229 15.968 42.6389 16.108 41.9909 16.108ZM41.9909 14.644C42.2949 14.644 42.5789 14.572 42.8429 14.428C43.1149 14.276 43.3309 14.052 43.4909 13.756C43.6509 13.46 43.7309 13.1 43.7309 12.676C43.7309 12.044 43.5629 11.56 43.2269 11.224C42.8989 10.88 42.4949 10.708 42.0149 10.708C41.5349 10.708 41.1309 10.88 40.8029 11.224C40.4829 11.56 40.3229 12.044 40.3229 12.676C40.3229 13.308 40.4789 13.796 40.7909 14.14C41.1109 14.476 41.5109 14.644 41.9909 14.644ZM47.5433 8.56C47.2473 8.56 46.9993 8.468 46.7993 8.284C46.6073 8.092 46.5113 7.856 46.5113 7.576C46.5113 7.296 46.6073 7.064 46.7993 6.88C46.9993 6.688 47.2473 6.592 47.5433 6.592C47.8393 6.592 48.0833 6.688 48.2753 6.88C48.4753 7.064 48.5753 7.296 48.5753 7.576C48.5753 7.856 48.4753 8.092 48.2753 8.284C48.0833 8.468 47.8393 8.56 47.5433 8.56ZM48.3713 9.352V16H46.6913V9.352H48.3713ZM53.7151 9.256C54.5071 9.256 55.1471 9.508 55.6351 10.012C56.1231 10.508 56.3671 11.204 56.3671 12.1V16H54.6871V12.328C54.6871 11.8 54.5551 11.396 54.2911 11.116C54.0271 10.828 53.6671 10.684 53.2111 10.684C52.7471 10.684 52.3791 10.828 52.1071 11.116C51.8431 11.396 51.7111 11.8 51.7111 12.328V16H50.0311V9.352H51.7111V10.18C51.9351 9.892 52.2191 9.668 52.5631 9.508C52.9151 9.34 53.2991 9.256 53.7151 9.256Z" fill="#22162B"/>
<defs>
<linearGradient id="paint0_linear_58_3497" x1="0.664367" y1="18.6302" x2="21.5023" y2="18.6302" gradientUnits="userSpaceOnUse">
<stop stop-color="#BA5C25"/>
<stop offset="0.2216" stop-color="#FFC538"/>
<stop offset="0.3463" stop-color="#FFA538"/>
<stop offset="0.403" stop-color="#FBC23C"/>
<stop offset="0.4598" stop-color="#F8D840"/>
<stop offset="0.4962" stop-color="#F7E041"/>
<stop offset="0.6331" stop-color="#F9D53F"/>
<stop offset="0.8742" stop-color="#FDB73B"/>
<stop offset="1" stop-color="#FFA538"/>
</linearGradient>
<linearGradient id="paint1_linear_58_3497" x1="22.5031" y1="15.164" x2="17.2408" y2="18.2022" gradientUnits="userSpaceOnUse">
<stop stop-color="white"/>
<stop offset="1" stop-color="white" stop-opacity="0"/>
</linearGradient>
<linearGradient id="paint2_linear_58_3497" x1="0.536242" y1="12.5454" x2="6.15597" y2="22.2791" gradientUnits="userSpaceOnUse">
<stop stop-color="#8B451C"/>
<stop offset="1" stop-color="#8B451C" stop-opacity="0"/>
</linearGradient>
<linearGradient id="paint3_linear_58_3497" x1="8.91434" y1="12.5443" x2="22.9901" y2="19.4306" gradientUnits="userSpaceOnUse">
<stop stop-color="#E37A34"/>
<stop offset="0.5493" stop-color="#FFA538"/>
<stop offset="0.9892" stop-color="#FFC538"/>
</linearGradient>
<linearGradient id="paint4_linear_58_3497" x1="23.6081" y1="20.8609" x2="1.96566" y2="8.11592" gradientUnits="userSpaceOnUse">
<stop offset="0.0223" stop-color="#FFC538"/>
<stop offset="0.2633" stop-color="#FFA538"/>
<stop offset="0.6212" stop-color="#F7E041"/>
<stop offset="1" stop-color="#FFA538"/>
</linearGradient>
<linearGradient id="paint5_linear_58_3497" x1="19.0387" y1="17.1653" x2="-2.06681" y2="4.73651" gradientUnits="userSpaceOnUse">
<stop stop-color="#BA5C25"/>
<stop offset="0.1991" stop-color="#FFC538"/>
<stop offset="0.4091" stop-color="#FFA538"/>
<stop offset="0.6212" stop-color="#F7E041"/>
<stop offset="1" stop-color="#FFA538"/>
</linearGradient>
<linearGradient id="paint6_linear_58_3497" x1="17.5979" y1="18.4486" x2="-0.317551" y2="7.89846" gradientUnits="userSpaceOnUse">
<stop stop-color="#BA5C25"/>
<stop offset="0.1991" stop-color="#FFC538"/>
<stop offset="0.4091" stop-color="#FFA538"/>
<stop offset="0.6212" stop-color="#F7E041"/>
<stop offset="1" stop-color="#FFA538"/>
</linearGradient>
<linearGradient id="paint7_linear_58_3497" x1="10.3203" y1="14.0827" x2="-6.81806" y2="23.9776" gradientUnits="userSpaceOnUse">
<stop stop-color="#8B451C"/>
<stop offset="1" stop-color="#8B451C" stop-opacity="0"/>
</linearGradient>
<linearGradient id="paint8_linear_58_3497" x1="2.86684" y1="14.9701" x2="23.7048" y2="14.9701" gradientUnits="userSpaceOnUse">
<stop stop-color="#BA5C25"/>
<stop offset="0.2216" stop-color="#FFC538"/>
<stop offset="0.3463" stop-color="#FFA538"/>
<stop offset="0.4967" stop-color="#FBC23C"/>
<stop offset="0.6474" stop-color="#F8D840"/>
<stop offset="0.7439" stop-color="#F7E041"/>
<stop offset="0.8135" stop-color="#F9D53F"/>
<stop offset="0.936" stop-color="#FDB73B"/>
<stop offset="1" stop-color="#FFA538"/>
</linearGradient>
<linearGradient id="paint9_linear_58_3497" x1="23.9611" y1="11.7007" x2="18.5468" y2="14.8267" gradientUnits="userSpaceOnUse">
<stop stop-color="white"/>
<stop offset="1" stop-color="white" stop-opacity="0"/>
</linearGradient>
<linearGradient id="paint10_linear_58_3497" x1="2.49123" y1="12.4952" x2="5.58494" y2="17.8535" gradientUnits="userSpaceOnUse">
<stop stop-color="#8B451C"/>
<stop offset="1" stop-color="#8B451C" stop-opacity="0"/>
</linearGradient>
<linearGradient id="paint11_linear_58_3497" x1="10.2073" y1="8.88421" x2="24.283" y2="15.7705" gradientUnits="userSpaceOnUse">
<stop stop-color="#FFA538"/>
<stop offset="1" stop-color="#F7E041"/>
</linearGradient>
<linearGradient id="paint12_linear_58_3497" x1="24.901" y1="17.2007" x2="3.25863" y2="4.45577" gradientUnits="userSpaceOnUse">
<stop stop-color="#E37A34"/>
<stop offset="0.5493" stop-color="#FFA538"/>
<stop offset="0.9892" stop-color="#FFC538"/>
</linearGradient>
<linearGradient id="paint13_linear_58_3497" x1="20.3297" y1="13.5051" x2="-0.775793" y2="1.07635" gradientUnits="userSpaceOnUse">
<stop stop-color="#BA5C25"/>
<stop offset="0.1991" stop-color="#FFC538"/>
<stop offset="0.4091" stop-color="#FFA538"/>
<stop offset="0.6212" stop-color="#F7E041"/>
<stop offset="1" stop-color="#FFA538"/>
</linearGradient>
<linearGradient id="paint14_linear_58_3497" x1="18.8889" y1="14.7885" x2="0.973459" y2="4.23824" gradientUnits="userSpaceOnUse">
<stop stop-color="#BA5C25"/>
<stop offset="0.1991" stop-color="#FFC538"/>
<stop offset="0.4091" stop-color="#FFA538"/>
<stop offset="0.6212" stop-color="#F7E041"/>
<stop offset="1" stop-color="#FFA538"/>
</linearGradient>
<linearGradient id="paint15_linear_58_3497" x1="7.95397" y1="12.9676" x2="1.65997" y2="16.6015" gradientUnits="userSpaceOnUse">
<stop stop-color="#8B451C"/>
<stop offset="1" stop-color="#8B451C" stop-opacity="0"/>
</linearGradient>
<linearGradient id="paint16_linear_58_3497" x1="4.90872" y1="11.0218" x2="25.7467" y2="11.0218" gradientUnits="userSpaceOnUse">
<stop stop-color="#BA5C25"/>
<stop offset="0.2216" stop-color="#FFC538"/>
<stop offset="0.3463" stop-color="#FFA538"/>
<stop offset="0.465" stop-color="#FBC23C"/>
<stop offset="0.584" stop-color="#F8D840"/>
<stop offset="0.6602" stop-color="#F7E041"/>
<stop offset="0.7525" stop-color="#F9D53F"/>
<stop offset="0.9151" stop-color="#FDB73B"/>
<stop offset="1" stop-color="#FFA538"/>
</linearGradient>
<linearGradient id="paint17_linear_58_3497" x1="22.1859" y1="7.91171" x2="15.863" y2="11.5623" gradientUnits="userSpaceOnUse">
<stop stop-color="white"/>
<stop offset="1" stop-color="white" stop-opacity="0"/>
</linearGradient>
<linearGradient id="paint18_linear_58_3497" x1="3.25403" y1="11.8047" x2="11.7078" y2="-2.83717" gradientUnits="userSpaceOnUse">
<stop stop-color="#FFC538"/>
<stop offset="1" stop-color="#F7E041"/>
</linearGradient>
<linearGradient id="paint19_linear_58_3497" x1="14.0382" y1="10.2852" x2="10.9264" y2="4.89543" gradientUnits="userSpaceOnUse">
<stop stop-color="white"/>
<stop offset="1" stop-color="white" stop-opacity="0"/>
</linearGradient>
<linearGradient id="paint20_linear_58_3497" x1="18.7562" y1="10.3955" x2="7.07534" y2="3.51672" gradientUnits="userSpaceOnUse">
<stop stop-color="#E37A34"/>
<stop offset="0.5493" stop-color="#FFA538"/>
<stop offset="0.9892" stop-color="#FFC538"/>
</linearGradient>
<linearGradient id="paint21_linear_58_3497" x1="23.6081" y1="13.2525" x2="3.15856" y2="1.21" gradientUnits="userSpaceOnUse">
<stop stop-color="#E37A34"/>
<stop offset="0.5493" stop-color="#FFA538"/>
<stop offset="0.9892" stop-color="#FFC538"/>
</linearGradient>
<linearGradient id="paint22_linear_58_3497" x1="19.0387" y1="9.55697" x2="-2.06681" y2="-2.87187" gradientUnits="userSpaceOnUse">
<stop stop-color="#BA5C25"/>
<stop offset="0.1991" stop-color="#FFC538"/>
<stop offset="0.4091" stop-color="#FFA538"/>
<stop offset="0.6212" stop-color="#F7E041"/>
<stop offset="1" stop-color="#FFA538"/>
</linearGradient>
<linearGradient id="paint23_linear_58_3497" x1="17.5979" y1="10.8402" x2="-0.317548" y2="0.289996" gradientUnits="userSpaceOnUse">
<stop stop-color="#BA5C25"/>
<stop offset="0.1991" stop-color="#FFC538"/>
<stop offset="0.4091" stop-color="#FFA538"/>
<stop offset="0.6212" stop-color="#F7E041"/>
<stop offset="1" stop-color="#FFA538"/>
</linearGradient>
</defs>
</svg>
